<svg xmlns="http://www.w3.org/2000/svg" width="64" height="64" viewBox="0 0 64 64" fill="none">
    <g>
        <path d="M0 0H64V64H0V0Z" fill="#44475A"/>
        <path d="M45.25 24C46.2165 24 47 25.1193 47 26.5V41.5C47 42.8807 46.2165 44 45.25 44H34.75C33.7835 44 33 42.8807 33 41.5V26.5C33 25.1193 33.7835 24 34.75 24H45.25Z" fill="#6272A4"/>
        <path d="M29.25 24C30.2165 24 31 25.1193 31 26.5V41.5C31 42.8807 30.2165 44 29.25 44H18.75C17.7835 44 17 42.8807 17 41.5V26.5C17 25.1193 17.7835 24 18.75 24H29.25Z" fill="#6272A4"/>
        <path d="M14 20.5C14 18.018 16.018 16 18.5 16H45.5C47.982 16 50 18.018 50 20.5V43C50 45.482 47.982 47.5 45.5 47.5H18.5C16.018 47.5 14 45.482 14 43V20.5ZM18.5 25V43H29.75V25H18.5ZM45.5 25H34.25V43H45.5V25Z" fill="#F8F8F2"/>
    </g>
</svg>
